<?xml version="1.0" encoding="UTF-8" standalone="no"?>
<!DOCTYPE svg PUBLIC "-//W3C//DTD SVG 1.1//EN"
 "http://www.w3.org/Graphics/SVG/1.1/DTD/svg11.dtd">
<!-- Generated by graphviz version 2.40.1 (20161225.0304)
 -->
<!-- Title: controllers_diagram Pages: 1 -->
<svg width="351pt" height="367pt"
 viewBox="0.00 0.00 351.43 367.00" xmlns="http://www.w3.org/2000/svg" xmlns:xlink="http://www.w3.org/1999/xlink">
<g id="graph0" class="graph" transform="scale(1 1) rotate(0) translate(4 363)">
<title>controllers_diagram</title>
<polygon fill="transparent" stroke="transparent" points="-4,4 -4,-363 347.4277,-363 347.4277,4 -4,4"/>
<!-- _diagram_info -->
<g id="node1" class="node">
<title>_diagram_info</title>
<text text-anchor="start" x="8" y="-184.6" font-family="Times,serif" font-size="13.00" fill="#000000">Controllers diagram</text>
<text text-anchor="start" x="8" y="-171.6" font-family="Times,serif" font-size="13.00" fill="#000000">Date: Apr 28 2018 &#45; 16:52</text>
<text text-anchor="start" x="8" y="-158.6" font-family="Times,serif" font-size="13.00" fill="#000000">Migration version: 20180427123139</text>
<text text-anchor="start" x="8" y="-145.6" font-family="Times,serif" font-size="13.00" fill="#000000">Generated by RailRoady 1.5.3</text>
<text text-anchor="start" x="8" y="-132.6" font-family="Times,serif" font-size="13.00" fill="#000000">http://railroady.prestonlee.com</text>
</g>
<!-- ApplicationController -->
<g id="node2" class="node">
<title>ApplicationController</title>
<path fill="none" stroke="#000000" d="M180,-224.5C180,-224.5 295.6416,-224.5 295.6416,-224.5 301.6416,-224.5 307.6416,-230.5 307.6416,-236.5 307.6416,-236.5 307.6416,-306.5 307.6416,-306.5 307.6416,-312.5 301.6416,-318.5 295.6416,-318.5 295.6416,-318.5 180,-318.5 180,-318.5 174,-318.5 168,-312.5 168,-306.5 168,-306.5 168,-236.5 168,-236.5 168,-230.5 174,-224.5 180,-224.5"/>
<text text-anchor="middle" x="237.8208" y="-303.3" font-family="Times,serif" font-size="14.00" fill="#000000">ApplicationController</text>
<polyline fill="none" stroke="#000000" points="168,-296.5 307.6416,-296.5 "/>
<polyline fill="none" stroke="#000000" points="168,-272.5 307.6416,-272.5 "/>
<polyline fill="none" stroke="#000000" points="168,-248.5 307.6416,-248.5 "/>
</g>
<!-- BooksController -->
<g id="node3" class="node">
<title>BooksController</title>
<path fill="none" stroke="#000000" d="M40,-252.5C40,-252.5 125.3311,-252.5 125.3311,-252.5 131.3311,-252.5 137.3311,-258.5 137.3311,-264.5 137.3311,-264.5 137.3311,-346.5 137.3311,-346.5 137.3311,-352.5 131.3311,-358.5 125.3311,-358.5 125.3311,-358.5 40,-358.5 40,-358.5 34,-358.5 28,-352.5 28,-346.5 28,-346.5 28,-264.5 28,-264.5 28,-258.5 34,-252.5 40,-252.5"/>
<text text-anchor="middle" x="82.6655" y="-343.3" font-family="Times,serif" font-size="14.00" fill="#000000">BooksController</text>
<polyline fill="none" stroke="#000000" points="28,-336.5 137.3311,-336.5 "/>
<text text-anchor="start" x="36" y="-321.3" font-family="Times,serif" font-size="14.00" fill="#000000">index</text>
<text text-anchor="start" x="36" y="-307.3" font-family="Times,serif" font-size="14.00" fill="#000000">search</text>
<polyline fill="none" stroke="#000000" points="28,-300.5 137.3311,-300.5 "/>
<polyline fill="none" stroke="#000000" points="28,-276.5 137.3311,-276.5 "/>
</g>
<!-- CartsController -->
<g id="node4" class="node">
<title>CartsController</title>
<path fill="none" stroke="#000000" d="M124,-.5C124,-.5 203.0967,-.5 203.0967,-.5 209.0967,-.5 215.0967,-6.5 215.0967,-12.5 215.0967,-12.5 215.0967,-80.5 215.0967,-80.5 215.0967,-86.5 209.0967,-92.5 203.0967,-92.5 203.0967,-92.5 124,-92.5 124,-92.5 118,-92.5 112,-86.5 112,-80.5 112,-80.5 112,-12.5 112,-12.5 112,-6.5 118,-.5 124,-.5"/>
<text text-anchor="middle" x="163.5483" y="-77.3" font-family="Times,serif" font-size="14.00" fill="#000000">CartsController</text>
<polyline fill="none" stroke="#000000" points="112,-70.5 215.0967,-70.5 "/>
<text text-anchor="start" x="120" y="-55.3" font-family="Times,serif" font-size="14.00" fill="#000000">index</text>
<polyline fill="none" stroke="#000000" points="112,-48.5 215.0967,-48.5 "/>
<polyline fill="none" stroke="#000000" points="112,-24.5 215.0967,-24.5 "/>
</g>
<!-- UsersController -->
<g id="node5" class="node">
<title>UsersController</title>
<path fill="none" stroke="#000000" d="M250,-42.5C250,-42.5 331.4277,-42.5 331.4277,-42.5 337.4277,-42.5 343.4277,-48.5 343.4277,-54.5 343.4277,-54.5 343.4277,-136.5 343.4277,-136.5 343.4277,-142.5 337.4277,-148.5 331.4277,-148.5 331.4277,-148.5 250,-148.5 250,-148.5 244,-148.5 238,-142.5 238,-136.5 238,-136.5 238,-54.5 238,-54.5 238,-48.5 244,-42.5 250,-42.5"/>
<text text-anchor="middle" x="290.7139" y="-133.3" font-family="Times,serif" font-size="14.00" fill="#000000">UsersController</text>
<polyline fill="none" stroke="#000000" points="238,-126.5 343.4277,-126.5 "/>
<text text-anchor="start" x="246" y="-111.3" font-family="Times,serif" font-size="14.00" fill="#000000">index</text>
<text text-anchor="start" x="246" y="-97.3" font-family="Times,serif" font-size="14.00" fill="#000000">show</text>
<polyline fill="none" stroke="#000000" points="238,-90.5 343.4277,-90.5 "/>
<polyline fill="none" stroke="#000000" points="238,-66.5 343.4277,-66.5 "/>
</g>
</g>
</svg>
