<?xml version="1.0" encoding="UTF-8" standalone="no"?>
<!DOCTYPE svg PUBLIC "-//W3C//DTD SVG 1.1//EN"
 "http://www.w3.org/Graphics/SVG/1.1/DTD/svg11.dtd">
<!-- Generated by graphviz version 2.40.1 (20161225.0304)
 -->
<!-- Title: models_diagram Pages: 1 -->
<svg width="578pt" height="225pt"
 viewBox="0.00 0.00 578.42 225.00" xmlns="http://www.w3.org/2000/svg" xmlns:xlink="http://www.w3.org/1999/xlink">
<g id="graph0" class="graph" transform="scale(1 1) rotate(0) translate(4 221)">
<title>models_diagram</title>
<polygon fill="transparent" stroke="transparent" points="-4,4 -4,-221 574.4178,-221 574.4178,4 -4,4"/>
<!-- _diagram_info -->
<g id="node1" class="node">
<title>_diagram_info</title>
<text text-anchor="start" x="8" y="-202.6" font-family="Times,serif" font-size="13.00" fill="#000000">Models diagram</text>
<text text-anchor="start" x="8" y="-189.6" font-family="Times,serif" font-size="13.00" fill="#000000">Date: Apr 28 2018 &#45; 16:52</text>
<text text-anchor="start" x="8" y="-176.6" font-family="Times,serif" font-size="13.00" fill="#000000">Migration version: 20180427123139</text>
<text text-anchor="start" x="8" y="-163.6" font-family="Times,serif" font-size="13.00" fill="#000000">Generated by RailRoady 1.5.3</text>
<text text-anchor="start" x="8" y="-150.6" font-family="Times,serif" font-size="13.00" fill="#000000">http://railroady.prestonlee.com</text>
</g>
<!-- ApplicationRecord -->
<g id="node2" class="node">
<title>ApplicationRecord</title>
<ellipse fill="none" stroke="#000000" cx="302.6877" cy="-180.5" rx="77.2916" ry="18"/>
<text text-anchor="middle" x="302.6877" y="-176.3" font-family="Times,serif" font-size="14.00" fill="#000000">ApplicationRecord</text>
</g>
<!-- Book -->
<g id="node3" class="node">
<title>Book</title>
<ellipse fill="none" stroke="#000000" cx="427.6877" cy="-180.5" rx="29.0429" ry="18"/>
<text text-anchor="middle" x="427.6877" y="-176.3" font-family="Times,serif" font-size="14.00" fill="#000000">Book</text>
</g>
<!-- Cart -->
<g id="node4" class="node">
<title>Cart</title>
<ellipse fill="none" stroke="#000000" cx="463.6877" cy="-90" rx="27" ry="18"/>
<text text-anchor="middle" x="463.6877" y="-85.8" font-family="Times,serif" font-size="14.00" fill="#000000">Cart</text>
</g>
<!-- Item -->
<g id="node5" class="node">
<title>Item</title>
<ellipse fill="none" stroke="#000000" cx="463.6877" cy="-18" rx="27" ry="18"/>
<text text-anchor="middle" x="463.6877" y="-13.8" font-family="Times,serif" font-size="14.00" fill="#000000">Item</text>
</g>
<!-- Cart&#45;&gt;Item -->
<g id="edge1" class="edge">
<title>Cart&#45;&gt;Item</title>
<path fill="none" stroke="#7e993e" d="M463.6877,-63.8144C463.6877,-58.2775 463.6877,-52.4053 463.6877,-46.7785"/>
<ellipse fill="none" stroke="#7e993e" cx="463.6878" cy="-67.8314" rx="4" ry="4"/>
<polygon fill="#7e993e" stroke="#7e993e" points="463.6878,-46.4133 468.1877,-36.4132 463.6878,-41.4133 463.6877,-36.4133 463.6877,-36.4133 463.6877,-36.4133 463.6878,-41.4133 459.1877,-36.4133 463.6878,-46.4133 463.6878,-46.4133"/>
</g>
<!-- Order -->
<g id="node6" class="node">
<title>Order</title>
<ellipse fill="none" stroke="#000000" cx="539.6877" cy="-90" rx="30.9619" ry="18"/>
<text text-anchor="middle" x="539.6877" y="-85.8" font-family="Times,serif" font-size="14.00" fill="#000000">Order</text>
</g>
<!-- User -->
<g id="node7" class="node">
<title>User</title>
<ellipse fill="none" stroke="#000000" cx="501.6877" cy="-180.5" rx="27" ry="18"/>
<text text-anchor="middle" x="501.6877" y="-176.3" font-family="Times,serif" font-size="14.00" fill="#000000">User</text>
</g>
<!-- User&#45;&gt;Cart -->
<g id="edge2" class="edge">
<title>User&#45;&gt;Cart</title>
<path fill="none" stroke="#2ac1c5" d="M491.1746,-155.462C486.1115,-143.4039 480.0364,-128.9357 474.8867,-116.6711"/>
<ellipse fill="none" stroke="#2ac1c5" cx="492.8123" cy="-159.3626" rx="4" ry="4"/>
<polygon fill="#2ac1c5" stroke="#2ac1c5" points="474.8636,-116.6159 475.1411,-105.6536 472.9278,-112.0058 470.992,-107.3957 470.992,-107.3957 470.992,-107.3957 472.9278,-112.0058 466.8429,-109.1379 474.8636,-116.6159 474.8636,-116.6159"/>
</g>
<!-- User&#45;&gt;Order -->
<g id="edge3" class="edge">
<title>User&#45;&gt;Order</title>
<path fill="none" stroke="#f36d24" d="M512.1794,-155.5132C517.2072,-143.5392 523.2367,-129.1795 528.3677,-116.9595"/>
<ellipse fill="none" stroke="#f36d24" cx="510.5631" cy="-159.3626" rx="4" ry="4"/>
<polygon fill="#f36d24" stroke="#f36d24" points="528.3823,-116.9247 536.4029,-109.4467 530.318,-112.3146 532.2538,-107.7045 532.2538,-107.7045 532.2538,-107.7045 530.318,-112.3146 528.1047,-105.9623 528.3823,-116.9247 528.3823,-116.9247"/>
</g>
</g>
</svg>
