<?xml version="1.0" encoding="UTF-8" standalone="no"?>
<!DOCTYPE svg PUBLIC "-//W3C//DTD SVG 1.1//EN"
 "http://www.w3.org/Graphics/SVG/1.1/DTD/svg11.dtd">
<!-- Generated by graphviz version 2.40.1 (20161225.0304)
 -->
<!-- Title: models_diagram Pages: 1 -->
<svg width="1053pt" height="467pt"
 viewBox="0.00 0.00 1052.55 467.00" xmlns="http://www.w3.org/2000/svg" xmlns:xlink="http://www.w3.org/1999/xlink">
<g id="graph0" class="graph" transform="scale(1 1) rotate(0) translate(4 463)">
<title>models_diagram</title>
<polygon fill="transparent" stroke="transparent" points="-4,4 -4,-463 1048.55,-463 1048.55,4 -4,4"/>
<!-- _diagram_info -->
<g id="node1" class="node">
<title>_diagram_info</title>
<text text-anchor="start" x="8" y="-409.6" font-family="Times,serif" font-size="13.00" fill="#000000">Models diagram</text>
<text text-anchor="start" x="8" y="-396.6" font-family="Times,serif" font-size="13.00" fill="#000000">Date: Apr 28 2018 &#45; 16:52</text>
<text text-anchor="start" x="8" y="-383.6" font-family="Times,serif" font-size="13.00" fill="#000000">Migration version: 20180427123139</text>
<text text-anchor="start" x="8" y="-370.6" font-family="Times,serif" font-size="13.00" fill="#000000">Generated by RailRoady 1.5.3</text>
<text text-anchor="start" x="8" y="-357.6" font-family="Times,serif" font-size="13.00" fill="#000000">http://railroady.prestonlee.com</text>
</g>
<!-- ApplicationRecord -->
<g id="node2" class="node">
<title>ApplicationRecord</title>
<ellipse fill="none" stroke="#000000" cx="302.6877" cy="-387.5" rx="77.2916" ry="18"/>
<text text-anchor="middle" x="302.6877" y="-383.3" font-family="Times,serif" font-size="14.00" fill="#000000">ApplicationRecord</text>
</g>
<!-- Book -->
<g id="node3" class="node">
<title>Book</title>
<path fill="none" stroke="#000000" d="M409.8254,-316.5C409.8254,-316.5 633.55,-316.5 633.55,-316.5 639.55,-316.5 645.55,-322.5 645.55,-328.5 645.55,-328.5 645.55,-446.5 645.55,-446.5 645.55,-452.5 639.55,-458.5 633.55,-458.5 633.55,-458.5 409.8254,-458.5 409.8254,-458.5 403.8254,-458.5 397.8254,-452.5 397.8254,-446.5 397.8254,-446.5 397.8254,-328.5 397.8254,-328.5 397.8254,-322.5 403.8254,-316.5 409.8254,-316.5"/>
<text text-anchor="middle" x="521.6877" y="-443.3" font-family="Times,serif" font-size="14.00" fill="#000000">Book</text>
<polyline fill="none" stroke="#000000" points="397.8254,-436.5 645.55,-436.5 "/>
<text text-anchor="start" x="405.8254" y="-421.3" font-family="Times,serif" font-size="14.00" fill="#000000">updated_at :timestamp without time zone</text>
<text text-anchor="start" x="405.8254" y="-407.3" font-family="Times,serif" font-size="14.00" fill="#000000">title :character varying</text>
<text text-anchor="start" x="405.8254" y="-393.3" font-family="Times,serif" font-size="14.00" fill="#000000">author :character varying</text>
<text text-anchor="start" x="405.8254" y="-379.3" font-family="Times,serif" font-size="14.00" fill="#000000">isbn :character varying</text>
<text text-anchor="start" x="405.8254" y="-365.3" font-family="Times,serif" font-size="14.00" fill="#000000">available :boolean</text>
<text text-anchor="start" x="405.8254" y="-351.3" font-family="Times,serif" font-size="14.00" fill="#000000">price :double precision</text>
<text text-anchor="start" x="405.8254" y="-337.3" font-family="Times,serif" font-size="14.00" fill="#000000">created_at :timestamp without time zone</text>
<text text-anchor="start" x="405.8254" y="-323.3" font-family="Times,serif" font-size="14.00" fill="#000000">id :uuid</text>
</g>
<!-- Cart -->
<g id="node4" class="node">
<title>Cart</title>
<path fill="none" stroke="#000000" d="M542.8254,-172.5C542.8254,-172.5 766.55,-172.5 766.55,-172.5 772.55,-172.5 778.55,-178.5 778.55,-184.5 778.55,-184.5 778.55,-260.5 778.55,-260.5 778.55,-266.5 772.55,-272.5 766.55,-272.5 766.55,-272.5 542.8254,-272.5 542.8254,-272.5 536.8254,-272.5 530.8254,-266.5 530.8254,-260.5 530.8254,-260.5 530.8254,-184.5 530.8254,-184.5 530.8254,-178.5 536.8254,-172.5 542.8254,-172.5"/>
<text text-anchor="middle" x="654.6877" y="-257.3" font-family="Times,serif" font-size="14.00" fill="#000000">Cart</text>
<polyline fill="none" stroke="#000000" points="530.8254,-250.5 778.55,-250.5 "/>
<text text-anchor="start" x="538.8254" y="-235.3" font-family="Times,serif" font-size="14.00" fill="#000000">id :uuid</text>
<text text-anchor="start" x="538.8254" y="-221.3" font-family="Times,serif" font-size="14.00" fill="#000000">state :integer</text>
<text text-anchor="start" x="538.8254" y="-207.3" font-family="Times,serif" font-size="14.00" fill="#000000">user_id :uuid</text>
<text text-anchor="start" x="538.8254" y="-193.3" font-family="Times,serif" font-size="14.00" fill="#000000">created_at :timestamp without time zone</text>
<text text-anchor="start" x="538.8254" y="-179.3" font-family="Times,serif" font-size="14.00" fill="#000000">updated_at :timestamp without time zone</text>
</g>
<!-- Item -->
<g id="node5" class="node">
<title>Item</title>
<path fill="none" stroke="#000000" d="M542.8254,-.5C542.8254,-.5 766.55,-.5 766.55,-.5 772.55,-.5 778.55,-6.5 778.55,-12.5 778.55,-12.5 778.55,-116.5 778.55,-116.5 778.55,-122.5 772.55,-128.5 766.55,-128.5 766.55,-128.5 542.8254,-128.5 542.8254,-128.5 536.8254,-128.5 530.8254,-122.5 530.8254,-116.5 530.8254,-116.5 530.8254,-12.5 530.8254,-12.5 530.8254,-6.5 536.8254,-.5 542.8254,-.5"/>
<text text-anchor="middle" x="654.6877" y="-113.3" font-family="Times,serif" font-size="14.00" fill="#000000">Item</text>
<polyline fill="none" stroke="#000000" points="530.8254,-106.5 778.55,-106.5 "/>
<text text-anchor="start" x="538.8254" y="-91.3" font-family="Times,serif" font-size="14.00" fill="#000000">cart_id :uuid</text>
<text text-anchor="start" x="538.8254" y="-77.3" font-family="Times,serif" font-size="14.00" fill="#000000">quantity :integer</text>
<text text-anchor="start" x="538.8254" y="-63.3" font-family="Times,serif" font-size="14.00" fill="#000000">book_id :uuid</text>
<text text-anchor="start" x="538.8254" y="-49.3" font-family="Times,serif" font-size="14.00" fill="#000000">id :uuid</text>
<text text-anchor="start" x="538.8254" y="-35.3" font-family="Times,serif" font-size="14.00" fill="#000000">order_id :uuid</text>
<text text-anchor="start" x="538.8254" y="-21.3" font-family="Times,serif" font-size="14.00" fill="#000000">created_at :timestamp without time zone</text>
<text text-anchor="start" x="538.8254" y="-7.3" font-family="Times,serif" font-size="14.00" fill="#000000">updated_at :timestamp without time zone</text>
</g>
<!-- Cart&#45;&gt;Item -->
<g id="edge1" class="edge">
<title>Cart&#45;&gt;Item</title>
<path fill="none" stroke="#62eb2f" d="M654.6877,-163.838C654.6877,-155.6764 654.6877,-147.2041 654.6877,-138.8028"/>
<ellipse fill="none" stroke="#62eb2f" cx="654.6878" cy="-168.0734" rx="4" ry="4"/>
<polygon fill="#62eb2f" stroke="#62eb2f" points="654.6878,-138.616 659.1877,-128.616 654.6878,-133.616 654.6877,-128.616 654.6877,-128.616 654.6877,-128.616 654.6878,-133.616 650.1877,-128.6161 654.6878,-138.616 654.6878,-138.616"/>
</g>
<!-- Order -->
<g id="node6" class="node">
<title>Order</title>
<path fill="none" stroke="#000000" d="M808.8254,-165.5C808.8254,-165.5 1032.55,-165.5 1032.55,-165.5 1038.55,-165.5 1044.55,-171.5 1044.55,-177.5 1044.55,-177.5 1044.55,-267.5 1044.55,-267.5 1044.55,-273.5 1038.55,-279.5 1032.55,-279.5 1032.55,-279.5 808.8254,-279.5 808.8254,-279.5 802.8254,-279.5 796.8254,-273.5 796.8254,-267.5 796.8254,-267.5 796.8254,-177.5 796.8254,-177.5 796.8254,-171.5 802.8254,-165.5 808.8254,-165.5"/>
<text text-anchor="middle" x="920.6877" y="-264.3" font-family="Times,serif" font-size="14.00" fill="#000000">Order</text>
<polyline fill="none" stroke="#000000" points="796.8254,-257.5 1044.55,-257.5 "/>
<text text-anchor="start" x="804.8254" y="-242.3" font-family="Times,serif" font-size="14.00" fill="#000000">id :uuid</text>
<text text-anchor="start" x="804.8254" y="-228.3" font-family="Times,serif" font-size="14.00" fill="#000000">amount :double precision</text>
<text text-anchor="start" x="804.8254" y="-214.3" font-family="Times,serif" font-size="14.00" fill="#000000">user_id :uuid</text>
<text text-anchor="start" x="804.8254" y="-200.3" font-family="Times,serif" font-size="14.00" fill="#000000">cart_id :uuid</text>
<text text-anchor="start" x="804.8254" y="-186.3" font-family="Times,serif" font-size="14.00" fill="#000000">created_at :timestamp without time zone</text>
<text text-anchor="start" x="804.8254" y="-172.3" font-family="Times,serif" font-size="14.00" fill="#000000">updated_at :timestamp without time zone</text>
</g>
<!-- User -->
<g id="node7" class="node">
<title>User</title>
<path fill="none" stroke="#000000" d="M675.8254,-330.5C675.8254,-330.5 899.55,-330.5 899.55,-330.5 905.55,-330.5 911.55,-336.5 911.55,-342.5 911.55,-342.5 911.55,-432.5 911.55,-432.5 911.55,-438.5 905.55,-444.5 899.55,-444.5 899.55,-444.5 675.8254,-444.5 675.8254,-444.5 669.8254,-444.5 663.8254,-438.5 663.8254,-432.5 663.8254,-432.5 663.8254,-342.5 663.8254,-342.5 663.8254,-336.5 669.8254,-330.5 675.8254,-330.5"/>
<text text-anchor="middle" x="787.6877" y="-429.3" font-family="Times,serif" font-size="14.00" fill="#000000">User</text>
<polyline fill="none" stroke="#000000" points="663.8254,-422.5 911.55,-422.5 "/>
<text text-anchor="start" x="671.8254" y="-407.3" font-family="Times,serif" font-size="14.00" fill="#000000">id :uuid</text>
<text text-anchor="start" x="671.8254" y="-393.3" font-family="Times,serif" font-size="14.00" fill="#000000">email :character varying</text>
<text text-anchor="start" x="671.8254" y="-379.3" font-family="Times,serif" font-size="14.00" fill="#000000">first_name :character varying</text>
<text text-anchor="start" x="671.8254" y="-365.3" font-family="Times,serif" font-size="14.00" fill="#000000">last_name :character varying</text>
<text text-anchor="start" x="671.8254" y="-351.3" font-family="Times,serif" font-size="14.00" fill="#000000">created_at :timestamp without time zone</text>
<text text-anchor="start" x="671.8254" y="-337.3" font-family="Times,serif" font-size="14.00" fill="#000000">updated_at :timestamp without time zone</text>
</g>
<!-- User&#45;&gt;Cart -->
<g id="edge2" class="edge">
<title>User&#45;&gt;Cart</title>
<path fill="none" stroke="#b54875" d="M736.1844,-323.6049C724.824,-309.5111 712.8476,-294.6532 701.677,-280.7949"/>
<ellipse fill="none" stroke="#b54875" cx="739.0338" cy="-327.1398" rx="4" ry="4"/>
<polygon fill="#b54875" stroke="#b54875" points="701.4795,-280.5499 698.7073,-269.9402 698.3417,-276.6571 695.2038,-272.7643 695.2038,-272.7643 695.2038,-272.7643 698.3417,-276.6571 691.7003,-275.5883 701.4795,-280.5499 701.4795,-280.5499"/>
</g>
<!-- User&#45;&gt;Order -->
<g id="edge3" class="edge">
<title>User&#45;&gt;Order</title>
<path fill="none" stroke="#ea1822" d="M839.1498,-323.6561C848.646,-311.8751 858.5739,-299.5586 868.1027,-287.7371"/>
<ellipse fill="none" stroke="#ea1822" cx="836.3417" cy="-327.1398" rx="4" ry="4"/>
<polygon fill="#ea1822" stroke="#ea1822" points="868.3499,-287.4304 878.1292,-282.4688 871.4878,-283.5376 874.6256,-279.6447 874.6256,-279.6447 874.6256,-279.6447 871.4878,-283.5376 871.1221,-276.8207 868.3499,-287.4304 868.3499,-287.4304"/>
</g>
</g>
</svg>
